<svg width="22" height="24" viewBox="0 0 22 24" fill="none" xmlns="http://www.w3.org/2000/svg">
<path d="M9.22778 0.651851C9.72371 0.230881 10.3514 0 11 0C11.6486 0 12.2763 0.230881 12.7722 0.651851L21.0222 7.66233C21.6431 8.18796 22 8.96225 22 9.77963V21.8458C22 22.4171 21.7747 22.965 21.3735 23.369C20.9724 23.773 20.4284 24 19.8611 24H16.1944C15.6272 24 15.0831 23.773 14.682 23.369C14.2809 22.965 14.0556 22.4171 14.0556 21.8458V15.6908C14.0556 15.446 13.959 15.2111 13.7871 15.038C13.6152 14.8649 13.382 14.7676 13.1389 14.7676H8.86111C8.618 14.7676 8.38484 14.8649 8.21293 15.038C8.04102 15.2111 7.94444 15.446 7.94444 15.6908V21.8458C7.94444 22.4171 7.7191 22.965 7.31798 23.369C6.91686 23.773 6.37282 24 5.80556 24H2.13889C1.85801 24 1.57987 23.9443 1.32037 23.836C1.06087 23.7278 0.82508 23.5691 0.626466 23.369C0.427852 23.169 0.270303 22.9315 0.162813 22.6702C0.0553241 22.4088 0 22.1287 0 21.8458V9.7784C0 8.96225 0.356889 8.18796 0.977778 7.6611L9.22778 0.651851V0.651851Z" fill="#2F2F2F"/>
</svg>
