<svg width="22" height="24" viewBox="0 0 22 24" fill="none" xmlns="http://www.w3.org/2000/svg">
<path d="M20.3747 8.42436L20.3761 8.42555C20.7706 8.75956 21 9.25379 21 9.77963V21.8458C21 22.1542 20.8783 22.4485 20.6639 22.6645C20.4498 22.8801 20.1608 23 19.8611 23H16.1944C15.8947 23 15.6058 22.8801 15.3917 22.6645C15.1773 22.4485 15.0556 22.1542 15.0556 21.8458V15.6908C15.0556 15.1831 14.8553 14.6946 14.4967 14.3334C14.1378 13.972 13.6495 13.7676 13.1389 13.7676H8.86111C8.35046 13.7676 7.86219 13.972 7.5033 14.3334C7.14466 14.6946 6.94444 15.1831 6.94444 15.6908V21.8458C6.94444 22.1542 6.82273 22.4485 6.60835 22.6645C6.39421 22.8801 6.10529 23 5.80556 23H2.13889C1.99032 23 1.84304 22.9705 1.70539 22.9131C1.56773 22.8557 1.44218 22.7713 1.3361 22.6645C1.23 22.5576 1.14546 22.4304 1.08765 22.2898C1.02984 22.1492 1 21.9983 1 21.8458V9.7784C1 9.25424 1.22908 8.75936 1.62479 8.42358L1.62525 8.42319L9.87491 1.41423C9.87503 1.41413 9.87514 1.41403 9.87525 1.41394C10.191 1.14606 10.5894 1 11 1C11.4107 1 11.8093 1.14616 12.1251 1.41423L20.3747 8.42436Z" stroke="#ACACAC" stroke-width="2"/>
</svg>
